<svg id="visual" viewBox="0 0 640 360" width="640" height="360" xmlns="http://www.w3.org/2000/svg" xmlns:xlink="http://www.w3.org/1999/xlink" version="1.1"><path d="M0 12L17.8 15.2C35.7 18.3 71.3 24.7 106.8 22.7C142.3 20.7 177.7 10.3 213.2 6.2C248.7 2 284.3 4 320 9.7C355.7 15.3 391.3 24.7 426.8 29.3C462.3 34 497.7 34 533.2 29.7C568.7 25.3 604.3 16.7 622.2 12.3L640 8L640 0L622.2 0C604.3 0 568.7 0 533.2 0C497.7 0 462.3 0 426.8 0C391.3 0 355.7 0 320 0C284.3 0 248.7 0 213.2 0C177.7 0 142.3 0 106.8 0C71.3 0 35.7 0 17.8 0L0 0Z" fill="#0D0D0D" stroke-linecap="round" stroke-linejoin="miter"></path></svg>