<svg id="visual" viewBox="0 0 640 360" width="640" height="360" xmlns="http://www.w3.org/2000/svg" xmlns:xlink="http://www.w3.org/1999/xlink" version="1.1"><path d="M0 34L21.3 32.2C42.7 30.3 85.3 26.7 128 30.8C170.7 35 213.3 47 256 54.8C298.7 62.7 341.3 66.3 384 65.8C426.7 65.3 469.3 60.7 512 54.3C554.7 48 597.3 40 618.7 36L640 32L640 0L618.7 0C597.3 0 554.7 0 512 0C469.3 0 426.7 0 384 0C341.3 0 298.7 0 256 0C213.3 0 170.7 0 128 0C85.3 0 42.7 0 21.3 0L0 0Z" fill="#0D0D0D" stroke-linecap="round" stroke-linejoin="miter"></path></svg>