
<svg id="visual" viewBox="0 0 640 360" width="640" height="360" xmlns="http://www.w3.org/2000/svg" xmlns:xlink="http://www.w3.org/1999/xlink" version="1.1"><path d="M0 305L15.2 307C30.3 309 60.7 313 91.2 310C121.7 307 152.3 297 182.8 293C213.3 289 243.7 291 274.2 294.5C304.7 298 335.3 303 365.8 307.3C396.3 311.7 426.7 315.3 457.2 312.3C487.7 309.3 518.3 299.7 548.8 300.5C579.3 301.3 609.7 312.7 624.8 318.3L640 324L640 361L624.8 361C609.7 361 579.3 361 548.8 361C518.3 361 487.7 361 457.2 361C426.7 361 396.3 361 365.8 361C335.3 361 304.7 361 274.2 361C243.7 361 213.3 361 182.8 361C152.3 361 121.7 361 91.2 361C60.7 361 30.3 361 15.2 361L0 361Z" fill="#ffffff" stroke-linecap="round" stroke-linejoin="miter"></path></svg>